<svg width="1440" height="700" viewBox="0 0 1440 700" fill="none" xmlns="http://www.w3.org/2000/svg">
<g clip-path="url(#clip0_5242_2587)">
<rect width="1440" height="700" fill="#162747"/>
<mask id="mask0_5242_2587" style="mask-type:alpha" maskUnits="userSpaceOnUse" x="0" y="0" width="1440" height="900">
<rect width="1440" height="900" fill="#C4C4C4"/>
</mask>
<g mask="url(#mask0_5242_2587)">
<mask id="mask1_5242_2587" style="mask-type:alpha" maskUnits="userSpaceOnUse" x="-47" y="-43" width="1582" height="1039">
<rect x="1534.61" y="995.332" width="1581.17" height="1038.24" transform="rotate(179.988 1534.61 995.332)" fill="#F5288F"/>
</mask>
<g mask="url(#mask1_5242_2587)">
<g filter="url(#filter0_f_5242_2587)">
<circle cx="1172.62" cy="885.872" r="552.457" transform="rotate(179.988 1172.62 885.872)" fill="url(#paint0_linear_5242_2587)"/>
</g>
<g filter="url(#filter1_f_5242_2587)">
<circle cx="-306.089" cy="476.757" r="552.457" transform="rotate(179.988 -306.089 476.757)" fill="url(#paint1_linear_5242_2587)"/>
</g>
<g filter="url(#filter2_f_5242_2587)">
<circle cx="10.7177" cy="955.327" r="402.437" transform="rotate(179.988 10.7177 955.327)" fill="#162647"/>
</g>
<g filter="url(#filter3_f_5242_2587)">
<circle cx="1534.43" cy="190.46" r="552.457" transform="rotate(179.988 1534.43 190.46)" fill="#19284C"/>
</g>
<g filter="url(#filter4_f_5242_2587)">
<circle cx="596.388" cy="1043.16" r="461.969" transform="rotate(179.988 596.388 1043.16)" fill="url(#paint2_linear_5242_2587)"/>
</g>
<path d="M1467.9 1028.68C915.566 927.123 746.823 541.612 487.544 73.7724L1662.95 455.423C1782.04 680.364 1909.76 1109.93 1467.9 1028.68Z" fill="#19284C"/>
<g filter="url(#filter5_f_5242_2587)">
<path d="M1429.06 1034.43C876.725 932.87 843.851 651.052 584.572 183.213L1608.11 421.169C1727.2 646.111 1870.92 1115.68 1429.06 1034.43Z" fill="#19284C"/>
</g>
<g filter="url(#filter6_f_5242_2587)">
<path d="M1509.35 1114.48C955.462 1019.51 948.128 741.245 704.994 211.996L1729.42 445.373C1840.7 700.064 1952.46 1190.45 1509.35 1114.48Z" fill="#19284C"/>
</g>
<g filter="url(#filter7_f_5242_2587)">
<circle cx="743.794" cy="-42.737" r="461.969" transform="rotate(179.988 743.794 -42.737)" fill="url(#paint3_linear_5242_2587)"/>
</g>
<path d="M1904.61 544.664C1063.65 606.852 672.121 110.88 117.808 -470.317L1970.29 -362.204C2228.72 -80.644 2577.37 494.914 1904.61 544.664Z" fill="#19284C"/>
<g filter="url(#filter8_f_5242_2587)">
<path d="M1997.3 654.687C1156.34 716.875 1040 371.985 485.692 -209.212L2062.99 -252.181C2321.41 29.379 2670.07 604.937 1997.3 654.687Z" fill="url(#paint4_linear_5242_2587)"/>
</g>
<g filter="url(#filter9_f_5242_2587)">
<path d="M1773.43 516.623C932.471 578.811 816.134 233.921 261.821 -347.276L1839.12 -390.245C2097.54 -108.685 2446.2 466.872 1773.43 516.623Z" fill="url(#paint5_linear_5242_2587)"/>
</g>
<g filter="url(#filter10_f_5242_2587)">
<circle cx="1462.94" cy="-42.8935" r="552.457" transform="rotate(179.988 1462.94 -42.8935)" fill="url(#paint6_linear_5242_2587)"/>
</g>
<g filter="url(#filter11_f_5242_2587)">
<path d="M1310.65 447.684C1310.61 258.303 1464.1 104.746 1653.48 104.705C1842.86 104.664 1996.42 258.155 1996.46 447.536C1996.5 636.917 1843.01 790.474 1653.63 790.515C1464.24 790.556 1310.69 637.065 1310.65 447.684Z" fill="#19284C"/>
</g>
<g filter="url(#filter12_f_5242_2587)">
<ellipse cx="730.104" cy="149.416" rx="295.5" ry="215" transform="rotate(-180 730.104 149.416)" fill="#162546"/>
</g>
</g>
<g filter="url(#filter13_f_5242_2587)">
<ellipse cx="278.439" cy="601.514" rx="207.578" ry="315.612" transform="rotate(-34.1892 278.439 601.514)" fill="#162647"/>
</g>
<mask id="mask2_5242_2587" style="mask-type:alpha" maskUnits="userSpaceOnUse" x="-501" y="-93" width="1539" height="1214">
<path d="M916.838 1120.75L1037.93 191.498L179.388 -92.408L-75.491 -91.7725L-500.055 422.686L-468.293 840.297L275.389 1017.35L916.838 1120.75Z" fill="url(#paint7_linear_5242_2587)"/>
</mask>
<g mask="url(#mask2_5242_2587)">
<mask id="mask3_5242_2587" style="mask-type:alpha" maskUnits="userSpaceOnUse" x="-531" y="-153" width="1606" height="1281">
<path d="M-530.781 806.691C-430.216 386.789 -255.367 -131.098 -251.743 -152.34L1074.89 169.431L925.07 1127.58L-530.781 806.691Z" fill="url(#paint8_linear_5242_2587)"/>
</mask>
<g mask="url(#mask3_5242_2587)">
<path d="M190.258 96.2081C335.719 130.839 422.203 310.387 390.095 445.253C357.987 580.119 256.968 743.087 100.901 705.932C23.5629 687.519 -91.804 755.318 -167.699 666.282C-244.958 575.647 -179.898 396.77 -163.701 328.737C-131.593 193.871 44.798 61.5776 190.258 96.2081Z" fill="#162647"/>
<g filter="url(#filter14_f_5242_2587)">
<path d="M185.768 107.344C341.771 144.485 425.613 287.856 400.686 392.561C375.758 497.267 284.186 620.661 128.183 583.52C50.8761 565.115 -60.3009 615.484 -139.735 541.477C-220.595 466.139 -165.337 328.396 -152.762 275.577C-127.834 170.872 29.7654 70.2039 185.768 107.344Z" fill="#162647"/>
</g>
<g filter="url(#filter15_f_5242_2587)">
<path d="M197.49 141.659C372.338 183.287 463.14 357.29 432.36 486.578C401.579 615.867 295.216 769.83 120.367 728.202C33.7212 707.574 -95.7271 784.36 -183.342 695.469C-272.531 604.981 -204.118 423.384 -188.591 358.165C-157.811 228.876 22.6408 100.032 197.49 141.659Z" fill="#162647"/>
</g>
<g filter="url(#filter16_f_5242_2587)">
<path d="M207.682 188.709C415.211 275.162 549.894 503.104 510.07 670.376C470.247 837.649 317.627 992.394 107.931 942.471C4.01591 917.731 -172.971 1068.24 -276.599 955.546C-382.089 840.831 -296.904 538.287 -276.815 453.906C-236.992 286.634 -32.7285 88.559 207.682 188.709Z" fill="#162647"/>
</g>
<g filter="url(#filter17_f_5242_2587)">
<path d="M254.135 244.565C479.923 298.32 639.12 563.951 600.184 727.494C561.249 891.038 401.181 1039.75 175.392 985.995C63.5034 959.357 -87.21 989.428 -200.754 876.339C-316.339 761.218 -301.593 406.401 -281.952 323.901C-243.016 160.358 28.3471 190.811 254.135 244.565Z" fill="#162647"/>
</g>
<g filter="url(#filter18_f_5242_2587)">
<path d="M342.598 334.607C575.93 390.158 724.324 658.409 684.5 825.682C644.677 992.954 479.708 1144.76 246.377 1089.21C130.75 1061.68 11.98 794.282 -105.563 678.278C-225.218 560.19 -139.106 339.622 -119.017 255.241C-79.1933 87.9684 109.267 279.057 342.598 334.607Z" fill="#162647"/>
</g>
<g filter="url(#filter19_f_5242_2587)">
<path d="M181.491 268.15C384.56 321.147 502.162 586.017 458.742 752.392C415.321 918.767 262.276 1070.94 59.2063 1017.94C-41.4245 991.677 -175.159 1004.05 -273.094 889.992C-372.789 773.89 -285.895 554.198 -263.992 470.269C-220.571 303.894 -21.5789 215.153 181.491 268.15Z" fill="#162647"/>
</g>
</g>
</g>
<mask id="mask4_5242_2587" style="mask-type:alpha" maskUnits="userSpaceOnUse" x="448" y="-822" width="2296" height="2068">
<path d="M448.323 205.92C728.162 652.474 1085.23 1222.07 1097.4 1245.42L2743.61 217.496L2094.53 -822L448.323 205.92Z" fill="url(#paint9_linear_5242_2587)"/>
</mask>
<g mask="url(#mask4_5242_2587)">
<path d="M1749.99 584.335C1935.66 468.399 1991.8 210.833 1902.18 67.3082C1812.56 -76.2162 1619.8 -217.635 1420.59 -93.2458C1321.87 -31.6048 1142.1 -52.7037 1069.44 92.003C995.482 239.309 1144.86 418.107 1190.07 490.508C1279.69 634.033 1564.32 700.271 1749.99 584.335Z" fill="#162647"/>
<g filter="url(#filter20_f_5242_2587)">
<path d="M1740.09 573.433C1939.22 449.094 1995.8 222.5 1918.77 99.131C1841.73 -24.2379 1665.51 -139.225 1466.38 -14.887C1367.71 46.7288 1194.4 35.8645 1115.52 170.504C1035.23 307.563 1167.43 458.878 1206.29 521.112C1283.32 644.481 1540.96 697.771 1740.09 573.433Z" fill="#162647"/>
</g>
<g filter="url(#filter21_f_5242_2587)">
<path d="M1746.12 569.663C1969.3 430.304 2023.09 160.914 1928.12 8.81495C1833.15 -143.284 1624.31 -290.307 1401.12 -150.947C1290.52 -81.8881 1081.43 -117.836 997.328 39.9541C911.712 200.579 1079.69 401.896 1127.6 478.622C1222.57 630.721 1522.93 709.023 1746.12 569.663Z" fill="#162647"/>
</g>
<g filter="url(#filter22_f_5242_2587)">
<path d="M1760.63 535.565C2012.88 326.198 2117.95 -13.5944 2006.8 -191.606C1895.64 -369.618 1635.62 -474.729 1367.96 -307.596C1235.32 -224.773 943.662 -312.316 841.427 -125.27C737.354 65.1373 925.431 285.147 981.502 374.945C1092.66 552.957 1468.41 778.105 1760.63 535.565Z" fill="#162647"/>
</g>
<g filter="url(#filter23_f_5242_2587)">
<path d="M1808.48 405.555C2096.69 225.596 2201.59 -158.681 2092.91 -332.724C1984.24 -506.767 1716.16 -600.887 1427.96 -420.928C1285.14 -331.749 1070.26 -289.891 954.694 -97.2699C837.055 98.8121 1024.55 311.661 1079.37 399.457C1188.05 573.501 1520.28 585.514 1808.48 405.555Z" fill="#162647"/>
</g>
<g filter="url(#filter24_f_5242_2587)">
<path d="M1877.27 266.042C2175.11 80.0705 2285.03 -314.611 2173.88 -492.623C2062.72 -670.635 1786.94 -765.903 1489.11 -579.932C1341.52 -487.774 1119.9 -443.813 999.899 -245.676C877.746 -43.9792 1069.93 173.463 1126.01 263.261C1237.16 441.273 1579.44 452.013 1877.27 266.042Z" fill="#162647"/>
</g>
<g filter="url(#filter25_f_5242_2587)">
<path d="M1670.94 434.225C1931.54 271.5 2009.42 -103.169 1898.27 -281.181C1787.11 -459.193 1530.78 -566.608 1270.18 -403.883C1141.04 -323.245 954.668 -272.687 856.589 -88.2361C756.748 99.5285 943.862 320.139 999.934 409.937C1111.09 587.949 1410.34 596.95 1670.94 434.225Z" fill="#162647"/>
</g>
</g>
<mask id="mask5_5242_2587" style="mask-type:alpha" maskUnits="userSpaceOnUse" x="-199" y="416" width="1299" height="789">
<path d="M1057.04 1204.09L1099.56 770.482L-181.227 416.668L-198.885 906.237L1057.04 1204.09Z" fill="url(#paint10_linear_5242_2587)"/>
</mask>
<g mask="url(#mask5_5242_2587)">
<mask id="mask6_5242_2587" style="mask-type:alpha" maskUnits="userSpaceOnUse" x="-162" y="394" width="1268" height="866">
<path d="M1105.6 660.58L1018.15 1259.95L-161.691 920.069L-97.3402 394.476L1105.6 660.58Z" fill="url(#paint11_linear_5242_2587)"/>
</mask>
<g mask="url(#mask6_5242_2587)">
<path d="M264.404 723.115C447.423 901.172 654.383 910.93 803.307 901.915L925.304 902.984L1003.43 919.402L875.431 1075.37L649.86 1054.16L143.24 919.101C143.24 919.101 -250.469 685.124 -137.025 682.93C-40.0693 669.118 74.4625 587.532 264.404 723.115Z" fill="url(#paint12_linear_5242_2587)"/>
<g filter="url(#filter26_f_5242_2587)">
<path d="M264.404 723.115C461.021 877.256 463.513 890.406 725.733 905.471L925.304 902.984L1003.43 919.402L875.431 1075.37L649.86 1054.16L143.24 919.101C143.24 919.101 -250.469 685.124 -137.025 682.93C-40.0693 669.118 74.4625 587.532 264.404 723.115Z" fill="url(#paint13_linear_5242_2587)"/>
</g>
<g filter="url(#filter27_f_5242_2587)">
<path d="M264.404 723.115C525.55 965.332 528.749 881.239 790.969 896.304L866.943 894.158L946.164 902.792L1003.43 919.402L875.431 1075.37L649.86 1054.16L143.24 919.101C143.24 919.101 -250.469 685.124 -137.025 682.93C-40.0693 669.118 73.3714 561.78 264.404 723.115Z" fill="url(#paint14_linear_5242_2587)"/>
</g>
<g filter="url(#filter28_f_5242_2587)">
<path d="M216.965 694.437C478.111 936.654 504.808 1011.46 828.759 895.974L904.733 893.828L1025.67 902.082L1120.73 918.361L875.15 1075.06L649.579 1053.84L142.959 918.782C142.959 918.782 -250.75 684.805 -137.306 682.611C-40.3503 668.799 25.9326 533.102 216.965 694.437Z" fill="url(#paint15_linear_5242_2587)"/>
</g>
<g filter="url(#filter29_f_5242_2587)">
<path d="M210.259 681.021C384.494 916.833 536.499 964.212 776.303 889.334L1090.32 801.926L1131.82 867.097L1120.73 918.361L875.15 1075.06L649.579 1053.84L142.959 918.782C142.959 918.782 -250.75 684.805 -137.306 682.611C-40.3503 668.799 -17.5291 422.485 210.259 681.021Z" fill="url(#paint16_linear_5242_2587)"/>
</g>
</g>
</g>
</g>
</g>
<defs>
<filter id="filter0_f_5242_2587" x="67.7088" y="-219.042" width="2209.83" height="2209.83" filterUnits="userSpaceOnUse" color-interpolation-filters="sRGB">
<feFlood flood-opacity="0" result="BackgroundImageFix"/>
<feBlend mode="normal" in="SourceGraphic" in2="BackgroundImageFix" result="shape"/>
<feGaussianBlur stdDeviation="276.229" result="effect1_foregroundBlur_5242_2587"/>
</filter>
<filter id="filter1_f_5242_2587" x="-1411" y="-628.157" width="2209.83" height="2209.83" filterUnits="userSpaceOnUse" color-interpolation-filters="sRGB">
<feFlood flood-opacity="0" result="BackgroundImageFix"/>
<feBlend mode="normal" in="SourceGraphic" in2="BackgroundImageFix" result="shape"/>
<feGaussianBlur stdDeviation="276.229" result="effect1_foregroundBlur_5242_2587"/>
</filter>
<filter id="filter2_f_5242_2587" x="-944.177" y="0.432922" width="1909.79" height="1909.79" filterUnits="userSpaceOnUse" color-interpolation-filters="sRGB">
<feFlood flood-opacity="0" result="BackgroundImageFix"/>
<feBlend mode="normal" in="SourceGraphic" in2="BackgroundImageFix" result="shape"/>
<feGaussianBlur stdDeviation="276.229" result="effect1_foregroundBlur_5242_2587"/>
</filter>
<filter id="filter3_f_5242_2587" x="429.52" y="-914.455" width="2209.83" height="2209.83" filterUnits="userSpaceOnUse" color-interpolation-filters="sRGB">
<feFlood flood-opacity="0" result="BackgroundImageFix"/>
<feBlend mode="normal" in="SourceGraphic" in2="BackgroundImageFix" result="shape"/>
<feGaussianBlur stdDeviation="276.229" result="effect1_foregroundBlur_5242_2587"/>
</filter>
<filter id="filter4_f_5242_2587" x="-418.038" y="28.7313" width="2028.85" height="2028.85" filterUnits="userSpaceOnUse" color-interpolation-filters="sRGB">
<feFlood flood-opacity="0" result="BackgroundImageFix"/>
<feBlend mode="normal" in="SourceGraphic" in2="BackgroundImageFix" result="shape"/>
<feGaussianBlur stdDeviation="276.229" result="effect1_foregroundBlur_5242_2587"/>
</filter>
<filter id="filter5_f_5242_2587" x="523.267" y="121.908" width="1267.19" height="983.164" filterUnits="userSpaceOnUse" color-interpolation-filters="sRGB">
<feFlood flood-opacity="0" result="BackgroundImageFix"/>
<feBlend mode="normal" in="SourceGraphic" in2="BackgroundImageFix" result="shape"/>
<feGaussianBlur stdDeviation="30.6522" result="effect1_foregroundBlur_5242_2587"/>
</filter>
<filter id="filter6_f_5242_2587" x="578.298" y="85.3007" width="1377.73" height="1163.78" filterUnits="userSpaceOnUse" color-interpolation-filters="sRGB">
<feFlood flood-opacity="0" result="BackgroundImageFix"/>
<feBlend mode="normal" in="SourceGraphic" in2="BackgroundImageFix" result="shape"/>
<feGaussianBlur stdDeviation="63.3478" result="effect1_foregroundBlur_5242_2587"/>
</filter>
<filter id="filter7_f_5242_2587" x="-270.632" y="-1057.16" width="2028.85" height="2028.85" filterUnits="userSpaceOnUse" color-interpolation-filters="sRGB">
<feFlood flood-opacity="0" result="BackgroundImageFix"/>
<feBlend mode="normal" in="SourceGraphic" in2="BackgroundImageFix" result="shape"/>
<feGaussianBlur stdDeviation="276.229" result="effect1_foregroundBlur_5242_2587"/>
</filter>
<filter id="filter8_f_5242_2587" x="338.052" y="-399.82" width="2196.56" height="1209.35" filterUnits="userSpaceOnUse" color-interpolation-filters="sRGB">
<feFlood flood-opacity="0" result="BackgroundImageFix"/>
<feBlend mode="normal" in="SourceGraphic" in2="BackgroundImageFix" result="shape"/>
<feGaussianBlur stdDeviation="73.8197" result="effect1_foregroundBlur_5242_2587"/>
</filter>
<filter id="filter9_f_5242_2587" x="152.281" y="-499.784" width="2120.36" height="1133.15" filterUnits="userSpaceOnUse" color-interpolation-filters="sRGB">
<feFlood flood-opacity="0" result="BackgroundImageFix"/>
<feBlend mode="normal" in="SourceGraphic" in2="BackgroundImageFix" result="shape"/>
<feGaussianBlur stdDeviation="54.7695" result="effect1_foregroundBlur_5242_2587"/>
</filter>
<filter id="filter10_f_5242_2587" x="358.028" y="-1147.81" width="2209.83" height="2209.83" filterUnits="userSpaceOnUse" color-interpolation-filters="sRGB">
<feFlood flood-opacity="0" result="BackgroundImageFix"/>
<feBlend mode="normal" in="SourceGraphic" in2="BackgroundImageFix" result="shape"/>
<feGaussianBlur stdDeviation="276.229" result="effect1_foregroundBlur_5242_2587"/>
</filter>
<filter id="filter11_f_5242_2587" x="758.189" y="-447.752" width="1790.72" height="1790.72" filterUnits="userSpaceOnUse" color-interpolation-filters="sRGB">
<feFlood flood-opacity="0" result="BackgroundImageFix"/>
<feBlend mode="normal" in="SourceGraphic" in2="BackgroundImageFix" result="shape"/>
<feGaussianBlur stdDeviation="276.229" result="effect1_foregroundBlur_5242_2587"/>
</filter>
<filter id="filter12_f_5242_2587" x="134.604" y="-365.584" width="1191" height="1030" filterUnits="userSpaceOnUse" color-interpolation-filters="sRGB">
<feFlood flood-opacity="0" result="BackgroundImageFix"/>
<feBlend mode="normal" in="SourceGraphic" in2="BackgroundImageFix" result="shape"/>
<feGaussianBlur stdDeviation="150" result="effect1_foregroundBlur_5242_2587"/>
</filter>
<filter id="filter13_f_5242_2587" x="-216.949" y="66.9642" width="990.777" height="1069.1" filterUnits="userSpaceOnUse" color-interpolation-filters="sRGB">
<feFlood flood-opacity="0" result="BackgroundImageFix"/>
<feBlend mode="normal" in="SourceGraphic" in2="BackgroundImageFix" result="shape"/>
<feGaussianBlur stdDeviation="124.268" result="effect1_foregroundBlur_5242_2587"/>
</filter>
<filter id="filter14_f_5242_2587" x="-192.819" y="89.5312" width="607.788" height="510.683" filterUnits="userSpaceOnUse" color-interpolation-filters="sRGB">
<feFlood flood-opacity="0" result="BackgroundImageFix"/>
<feBlend mode="normal" in="SourceGraphic" in2="BackgroundImageFix" result="shape"/>
<feGaussianBlur stdDeviation="4.97072" result="effect1_foregroundBlur_5242_2587"/>
</filter>
<filter id="filter15_f_5242_2587" x="-263.09" y="98.8988" width="736.167" height="675.377" filterUnits="userSpaceOnUse" color-interpolation-filters="sRGB">
<feFlood flood-opacity="0" result="BackgroundImageFix"/>
<feBlend mode="normal" in="SourceGraphic" in2="BackgroundImageFix" result="shape"/>
<feGaussianBlur stdDeviation="17.3975" result="effect1_foregroundBlur_5242_2587"/>
</filter>
<filter id="filter16_f_5242_2587" x="-378.049" y="111.952" width="944.801" height="935.683" filterUnits="userSpaceOnUse" color-interpolation-filters="sRGB">
<feFlood flood-opacity="0" result="BackgroundImageFix"/>
<feBlend mode="normal" in="SourceGraphic" in2="BackgroundImageFix" result="shape"/>
<feGaussianBlur stdDeviation="24.8536" result="effect1_foregroundBlur_5242_2587"/>
</filter>
<filter id="filter17_f_5242_2587" x="-429.618" y="67.4738" width="1169.88" height="1063.92" filterUnits="userSpaceOnUse" color-interpolation-filters="sRGB">
<feFlood flood-opacity="0" result="BackgroundImageFix"/>
<feBlend mode="normal" in="SourceGraphic" in2="BackgroundImageFix" result="shape"/>
<feGaussianBlur stdDeviation="67.1047" result="effect1_foregroundBlur_5242_2587"/>
</filter>
<filter id="filter18_f_5242_2587" x="-500.83" y="-144.959" width="1524.82" height="1578.88" filterUnits="userSpaceOnUse" color-interpolation-filters="sRGB">
<feFlood flood-opacity="0" result="BackgroundImageFix"/>
<feBlend mode="normal" in="SourceGraphic" in2="BackgroundImageFix" result="shape"/>
<feGaussianBlur stdDeviation="166.519" result="effect1_foregroundBlur_5242_2587"/>
</filter>
<filter id="filter19_f_5242_2587" x="-474.081" y="98.7477" width="1095.89" height="1084.01" filterUnits="userSpaceOnUse" color-interpolation-filters="sRGB">
<feFlood flood-opacity="0" result="BackgroundImageFix"/>
<feBlend mode="normal" in="SourceGraphic" in2="BackgroundImageFix" result="shape"/>
<feGaussianBlur stdDeviation="77.0461" result="effect1_foregroundBlur_5242_2587"/>
</filter>
<filter id="filter20_f_5242_2587" x="1080.17" y="-78.3609" width="881.637" height="732.564" filterUnits="userSpaceOnUse" color-interpolation-filters="sRGB">
<feFlood flood-opacity="0" result="BackgroundImageFix"/>
<feBlend mode="normal" in="SourceGraphic" in2="BackgroundImageFix" result="shape"/>
<feGaussianBlur stdDeviation="4.97072" result="effect1_foregroundBlur_5242_2587"/>
</filter>
<filter id="filter21_f_5242_2587" x="938.602" y="-241.626" width="1069.13" height="918.686" filterUnits="userSpaceOnUse" color-interpolation-filters="sRGB">
<feFlood flood-opacity="0" result="BackgroundImageFix"/>
<feBlend mode="normal" in="SourceGraphic" in2="BackgroundImageFix" result="shape"/>
<feGaussianBlur stdDeviation="17.3975" result="effect1_foregroundBlur_5242_2587"/>
</filter>
<filter id="filter22_f_5242_2587" x="760.877" y="-441.294" width="1339.73" height="1132.64" filterUnits="userSpaceOnUse" color-interpolation-filters="sRGB">
<feFlood flood-opacity="0" result="BackgroundImageFix"/>
<feBlend mode="normal" in="SourceGraphic" in2="BackgroundImageFix" result="shape"/>
<feGaussianBlur stdDeviation="24.8536" result="effect1_foregroundBlur_5242_2587"/>
</filter>
<filter id="filter23_f_5242_2587" x="782.411" y="-652.214" width="1486.7" height="1321.77" filterUnits="userSpaceOnUse" color-interpolation-filters="sRGB">
<feFlood flood-opacity="0" result="BackgroundImageFix"/>
<feBlend mode="normal" in="SourceGraphic" in2="BackgroundImageFix" result="shape"/>
<feGaussianBlur stdDeviation="67.1047" result="effect1_foregroundBlur_5242_2587"/>
</filter>
<filter id="filter24_f_5242_2587" x="626.974" y="-1014.04" width="1922.4" height="1748.27" filterUnits="userSpaceOnUse" color-interpolation-filters="sRGB">
<feFlood flood-opacity="0" result="BackgroundImageFix"/>
<feBlend mode="normal" in="SourceGraphic" in2="BackgroundImageFix" result="shape"/>
<feGaussianBlur stdDeviation="166.519" result="effect1_foregroundBlur_5242_2587"/>
</filter>
<filter id="filter25_f_5242_2587" x="673.672" y="-638.129" width="1427.87" height="1342.38" filterUnits="userSpaceOnUse" color-interpolation-filters="sRGB">
<feFlood flood-opacity="0" result="BackgroundImageFix"/>
<feBlend mode="normal" in="SourceGraphic" in2="BackgroundImageFix" result="shape"/>
<feGaussianBlur stdDeviation="77.0461" result="effect1_foregroundBlur_5242_2587"/>
</filter>
<filter id="filter26_f_5242_2587" x="-169.495" y="634.063" width="1184.87" height="453.252" filterUnits="userSpaceOnUse" color-interpolation-filters="sRGB">
<feFlood flood-opacity="0" result="BackgroundImageFix"/>
<feBlend mode="normal" in="SourceGraphic" in2="BackgroundImageFix" result="shape"/>
<feGaussianBlur stdDeviation="5.97027" result="effect1_foregroundBlur_5242_2587"/>
</filter>
<filter id="filter27_f_5242_2587" x="-176.318" y="616.415" width="1198.51" height="477.723" filterUnits="userSpaceOnUse" color-interpolation-filters="sRGB">
<feFlood flood-opacity="0" result="BackgroundImageFix"/>
<feBlend mode="normal" in="SourceGraphic" in2="BackgroundImageFix" result="shape"/>
<feGaussianBlur stdDeviation="9.38185" result="effect1_foregroundBlur_5242_2587"/>
</filter>
<filter id="filter28_f_5242_2587" x="-190.245" y="583.71" width="1343.38" height="523.755" filterUnits="userSpaceOnUse" color-interpolation-filters="sRGB">
<feFlood flood-opacity="0" result="BackgroundImageFix"/>
<feBlend mode="normal" in="SourceGraphic" in2="BackgroundImageFix" result="shape"/>
<feGaussianBlur stdDeviation="16.205" result="effect1_foregroundBlur_5242_2587"/>
</filter>
<filter id="filter29_f_5242_2587" x="-210.714" y="510.535" width="1395.42" height="617.4" filterUnits="userSpaceOnUse" color-interpolation-filters="sRGB">
<feFlood flood-opacity="0" result="BackgroundImageFix"/>
<feBlend mode="normal" in="SourceGraphic" in2="BackgroundImageFix" result="shape"/>
<feGaussianBlur stdDeviation="26.4398" result="effect1_foregroundBlur_5242_2587"/>
</filter>
<linearGradient id="paint0_linear_5242_2587" x1="1172.77" y1="462.074" x2="1172.77" y2="1438.33" gradientUnits="userSpaceOnUse">
<stop stop-color="#0F1F40"/>
<stop offset="1" stop-color="#0285FE"/>
</linearGradient>
<linearGradient id="paint1_linear_5242_2587" x1="-305.945" y1="52.9581" x2="-305.945" y2="1029.21" gradientUnits="userSpaceOnUse">
<stop stop-color="#0F1F40"/>
<stop offset="1" stop-color="#0285FE"/>
</linearGradient>
<linearGradient id="paint2_linear_5242_2587" x1="596.508" y1="688.774" x2="596.508" y2="1505.13" gradientUnits="userSpaceOnUse">
<stop stop-color="#0F1F40"/>
<stop offset="1" stop-color="#0285FE"/>
</linearGradient>
<linearGradient id="paint3_linear_5242_2587" x1="743.914" y1="-397.121" x2="743.914" y2="419.232" gradientUnits="userSpaceOnUse">
<stop stop-color="#0F1F40"/>
<stop offset="1" stop-color="#0285FE"/>
</linearGradient>
<linearGradient id="paint4_linear_5242_2587" x1="1436.19" y1="555.542" x2="1436.01" y2="-252.046" gradientUnits="userSpaceOnUse">
<stop stop-color="#0F1F40"/>
<stop offset="1" stop-color="#0285FE"/>
</linearGradient>
<linearGradient id="paint5_linear_5242_2587" x1="1212.32" y1="417.478" x2="1212.14" y2="-390.11" gradientUnits="userSpaceOnUse">
<stop stop-color="#0F1F40"/>
<stop offset="1" stop-color="#0285FE"/>
</linearGradient>
<linearGradient id="paint6_linear_5242_2587" x1="1463.09" y1="-466.692" x2="1463.09" y2="509.564" gradientUnits="userSpaceOnUse">
<stop stop-color="#0F1F40"/>
<stop offset="1" stop-color="#0285FE"/>
</linearGradient>
<linearGradient id="paint7_linear_5242_2587" x1="380.573" y1="401.85" x2="-105.447" y2="327.522" gradientUnits="userSpaceOnUse">
<stop stop-color="#C4C4C4"/>
<stop offset="0.943414" stop-color="#C4C4C4" stop-opacity="0"/>
</linearGradient>
<linearGradient id="paint8_linear_5242_2587" x1="193" y1="158.501" x2="64.7164" y2="716.432" gradientUnits="userSpaceOnUse">
<stop stop-color="#C4C4C4"/>
<stop offset="1" stop-color="#C4C4C4" stop-opacity="0"/>
</linearGradient>
<linearGradient id="paint9_linear_5242_2587" x1="1682.86" y1="650.967" x2="1246.57" y2="-99.9507" gradientUnits="userSpaceOnUse">
<stop stop-color="#C4C4C4"/>
<stop offset="1" stop-color="#C4C4C4" stop-opacity="0"/>
</linearGradient>
<linearGradient id="paint10_linear_5242_2587" x1="450.178" y1="838.501" x2="417.305" y2="985.682" gradientUnits="userSpaceOnUse">
<stop stop-color="#C4C4C4"/>
<stop offset="1" stop-color="#C4C4C4" stop-opacity="0"/>
</linearGradient>
<linearGradient id="paint11_linear_5242_2587" x1="-141.249" y1="716.205" x2="1015.68" y2="948.695" gradientUnits="userSpaceOnUse">
<stop stop-color="#C4C4C4" stop-opacity="0"/>
<stop offset="0.364583" stop-color="#C4C4C4"/>
<stop offset="0.609375" stop-color="#C4C4C4"/>
<stop offset="1" stop-color="#C4C4C4" stop-opacity="0"/>
</linearGradient>
<linearGradient id="paint12_linear_5242_2587" x1="221.148" y1="1003.89" x2="703.458" y2="578.938" gradientUnits="userSpaceOnUse">
<stop stop-color="#0F1F40"/>
<stop offset="1" stop-color="#0285FE"/>
</linearGradient>
<linearGradient id="paint13_linear_5242_2587" x1="221.148" y1="1003.89" x2="703.458" y2="578.938" gradientUnits="userSpaceOnUse">
<stop stop-color="#0F1F40"/>
<stop offset="1" stop-color="#0285FE"/>
</linearGradient>
<linearGradient id="paint14_linear_5242_2587" x1="221.148" y1="1003.89" x2="703.458" y2="578.938" gradientUnits="userSpaceOnUse">
<stop stop-color="#0F1F40"/>
<stop offset="1" stop-color="#0285FE"/>
</linearGradient>
<linearGradient id="paint15_linear_5242_2587" x1="243.413" y1="1013.53" x2="784.524" y2="536.777" gradientUnits="userSpaceOnUse">
<stop stop-color="#0F1F40"/>
<stop offset="1" stop-color="#0285FE"/>
</linearGradient>
<linearGradient id="paint16_linear_5242_2587" x1="248.145" y1="1009.37" x2="825.161" y2="500.973" gradientUnits="userSpaceOnUse">
<stop stop-color="#0F1F40"/>
<stop offset="1" stop-color="#0285FE"/>
</linearGradient>
<clipPath id="clip0_5242_2587">
<rect width="1440" height="700" fill="white"/>
</clipPath>
</defs>
</svg>
